
        <svg xmlns="http://www.w3.org/2000/svg" xmlns:xlink="http://www.w3.org/1999/xlink" version="1.1" width="3128.7515700296494" 
        height="3197.4754442622266" viewBox="0 0 3128.7515700296494 3197.4754442622266">
			
			<g transform="scale(9.87377221311132) translate(10, 10)">
				<defs id="SvgjsDefs1013"></defs><g id="SvgjsG1014" featureKey="rootContainer" transform="matrix(2.870724373203907,0,0,2.870724373203907,-0.35551616503170297,0.11259048810220063)" fill="#4f46e5"><g xmlns="http://www.w3.org/2000/svg"><path d="M40.7 103.4a3 3 0 0 0-1.9-.4c.3.8-.2.8-.7.7s-1-.6-1.5 0 2 .4 3 .8a.9.9 0 0 0 1.1 0 3.7 3.7 0 0 0 0-1.1zM11.9 87c-.7-.2-1.1-.6-1.7-.8s-.5-.7-.8-1.1H9a2 2 0 0 0 1.1 1.6 4.7 4.7 0 0 0 1.5 1.8c0-.5 1.8-1.2.3-1.5zm3.5 4.5a2.4 2.4 0 0 1-1.1-1.1.2.2 0 0 0-.4 0l-.4.4 2.2 1.9V92zm-7.5-8.6h-.8l1.1 1.5a.8.8 0 0 0 .4-.7.3.3 0 0 0 .1-.4 1 1 0 0 0-.8-.4zm2.4-62.1c0-.4.1-.8-.6-.7h-.3L9 21.6c.7.2 1.1-.2 1.3-.8zm17.8 79.3v.7h.7c.2 0 .6-.1.5-.3s-.8-.4-1.2-.4z"></path><path d="M103.4 57.2v-2.3c0-1.2.5-2.5-.4-3.7v-.4a6 6 0 0 0 0-4.2l-.2-1.4-.3-1.6v-.8c-.2-1 .1-2.1-1.1-2.7a.2.2 0 0 0 0-.2v-1.1a3.7 3.7 0 0 0-.8-1.9c-.2-.7-.2-1.4-.7-2v-.6l-.4-1.2c-.2-.5-.2-1.1-.7-1.5l-3-5.9h-.3V25l-1-.9c-1.1-1.7-2-3.6-3.4-5.1l-.4-.8-.8-.3-.7-.8-3.2-3.7h-.4c-.1-.3-.4-.3-.7-.3a4 4 0 0 0-2.7-1.9c-.3-1.4-1.5-1.7-2.6-2.2l-.3-.3a2.1 2.1 0 0 0-1.5-.8l-.4-.7h-.7l-3.5-2.1C72 5 71 4.1 69.8 3.7h-.7A1 1 0 0 0 68 3l-1.8-.5-1.5-.6-.8-.4h-.7l-1.5-.3a1.1 1.1 0 0 0-1.1.3c-.1-.7-.7-.7-1.2-.8h-.7l-1 .3c-.5-1.2-1.6-.5-2.4-.7L53.5 0h-.4c-1.1.1-2.3-.3-3.4.3h-4.5l-.4.4h-2.2l-1.9.3c-.8.2-1.6.1-2.3.7a3.7 3.7 0 0 1-2.6.1l-1.1.6h-.4l-.3.2a2 2 0 0 0-1.4.7h-.1l-.9.4h-.1c-.3-.1-.6.2-.9.1l-.3.4-.8.6c-.2-.3-.4-.2-.7-.2v.7a1.8 1.8 0 0 0-1.9.4h-.7l-1.2 1h.2l-.8.8H24a2.5 2.5 0 0 0-1.9 1.4c-.6.5-1.5.6-1.9 1.4h-.3v.4a2 2 0 0 0-1.6 1.1 2.3 2.3 0 0 0-1.1 1.2 1.7 1.7 0 0 0-1.5 1.1 4.5 4.5 0 0 0-1.9 1.9l-.3.4c.2.4.9.4 1.4.5a50.9 50.9 0 0 0 28.6 86.2.8.8 0 0 0 .7.3h.7a51.3 51.3 0 0 0 6 .4h.8a1.4 1.4 0 0 1 .1.6c-1.5.9-3.1-1.4-4.6.1.3.3.8.3.8.9l4.8.4H54a2 2 0 0 1 0-.3 3.4 3.4 0 0 0 1.8-.5c.6-.1 1.2 1 1.7-.1.9 0 1.9.4 2.6-.7h.1c.9 0 1.9.6 2.6-.4l2.6-.3.4.2 2.3-1.3h1c.6.2 1-.2 1.3-.7s2.1-1 3.3-1a3 3 0 0 0 2.7-1.2l2.6-1.7c.7.1.9-.7 1.4-.8s.9-.8 1.5-1.1l.3-.3h.1c.4.1.6-.2.7-.5l.4-.4 2.3-2.6 1.1-1.1.7-.4c.6.1.7-.6 1.1-.8l.9-1.1.6-.4a1.9 1.9 0 0 0 1.3-1.3v-.2a1.8 1.8 0 0 0 .5-.7h.2a1.5 1.5 0 0 0 .5-.5c-.1-.9 1.1-1.1 1.1-2l.9-1.4a1.9 1.9 0 0 0 1.2-1.7c.2-.5.8-.7.6-1.4l.8-.8v-.9c.3 0 .5-.3.7-.5l.4-.7.7-1.6.4-1 .8-1.8.3-.4.2-1.1.5-1.4a1.2 1.2 0 0 0 .3-1.2c.5-.2.3-.7.5-1.1a.5.5 0 0 1 0-.4V65c.5-.5.4-1.1.4-1.7v-.5c.6-.9.2-2.1.6-3s-.3-.6.1-.8h.3v-1h-.1zm-2.9-19.5zM82.2 11.9zM65.8 3zm0 0zM56.4.8zm.1 103zm39.9-24.9zM102 62z"></path></g></g><g id="SvgjsG1015" featureKey="symbolFeature-0" transform="matrix(0.2076923076923077,0,0,0.2076923076923077,84.72692307692307,37.25)" fill="#f6f6f6"><path xmlns="http://www.w3.org/2000/svg" d="M373.228,162.5H126.5v468h360V275.771L373.228,162.5z M378.5,193.227l77.272,77.273H378.5V193.227z M144.5,612.5v-432h216  v108h108v324H144.5z"></path><path xmlns="http://www.w3.org/2000/svg" d="M436.125,503.49l-25.092-29.314l-0.705,11.383L383,471.896v-96.219c0-0.044-0.012-0.085-0.013-0.129  c-0.003-0.103-0.01-0.204-0.02-0.307c-0.011-0.105-0.025-0.208-0.043-0.312c-0.017-0.094-0.032-0.188-0.054-0.28  c-0.021-0.088-0.045-0.174-0.071-0.261c-0.029-0.099-0.064-0.194-0.101-0.291c-0.039-0.104-0.079-0.205-0.125-0.305  c-0.02-0.042-0.028-0.085-0.049-0.127c-0.017-0.033-0.041-0.06-0.059-0.092c-0.046-0.087-0.099-0.17-0.15-0.255  c-0.061-0.098-0.124-0.193-0.191-0.286c-0.05-0.068-0.097-0.138-0.15-0.203c-0.058-0.071-0.122-0.135-0.185-0.203  c-0.077-0.083-0.155-0.162-0.238-0.239c-0.067-0.063-0.133-0.127-0.204-0.186c-0.064-0.053-0.134-0.1-0.201-0.149  c-0.093-0.068-0.188-0.131-0.285-0.191c-0.086-0.053-0.17-0.106-0.259-0.153c-0.032-0.017-0.058-0.041-0.09-0.057L311,336.896  v-26.304l10.498,4.46L306.5,279.5l-14.998,35.552l10.498-4.46v26.304l-69.513,34.756c-0.03,0.015-0.054,0.038-0.084,0.053  c-0.093,0.049-0.181,0.104-0.27,0.159c-0.096,0.06-0.188,0.122-0.279,0.188c-0.066,0.048-0.135,0.094-0.198,0.146  c-0.074,0.06-0.141,0.127-0.211,0.192c-0.082,0.076-0.159,0.154-0.235,0.236c-0.062,0.067-0.126,0.131-0.184,0.201  c-0.054,0.065-0.101,0.136-0.151,0.205c-0.068,0.093-0.131,0.188-0.192,0.286c-0.052,0.084-0.104,0.167-0.15,0.255  c-0.017,0.032-0.041,0.059-0.058,0.091c-0.02,0.041-0.028,0.083-0.047,0.124c-0.047,0.102-0.088,0.205-0.128,0.31  c-0.036,0.096-0.07,0.191-0.1,0.29c-0.026,0.086-0.049,0.171-0.07,0.257c-0.022,0.094-0.039,0.189-0.055,0.286  c-0.018,0.103-0.032,0.206-0.043,0.31c-0.01,0.102-0.016,0.202-0.019,0.304c-0.001,0.045-0.013,0.087-0.013,0.132v96.219  l-27.328,13.662l-0.706-11.383l-25.092,29.314l38.506-2.486l-8.683-7.395l27.802-13.9l69.987,34.994  c0.059,0.029,0.121,0.051,0.181,0.076c0.053,0.023,0.105,0.047,0.158,0.068c0.236,0.094,0.476,0.17,0.721,0.225  c0.043,0.008,0.088,0.014,0.132,0.021c0.271,0.051,0.546,0.084,0.821,0.084s0.55-0.033,0.821-0.084  c0.044-0.008,0.088-0.014,0.132-0.021c0.245-0.055,0.484-0.131,0.721-0.225c0.054-0.021,0.105-0.045,0.158-0.068  c0.06-0.025,0.121-0.047,0.181-0.076l69.987-34.994l27.803,13.9l-8.684,7.395L436.125,503.49z M311,414.459l63-31.5v84.438l-63-31.5  V414.459z M368.438,375.677L311,404.396v-57.438L368.438,375.677z M302,404.396l-57.438-28.719L302,346.958V404.396z M239,382.958  l63,31.5v21.438l-63,31.5V382.958z M302,445.959v57.438l-57.437-28.719L302,445.959z M311,503.396v-57.438l57.437,28.719  L311,503.396z"></path></g><g id="SvgjsG1016" featureKey="nameFeature-0" transform="matrix(1.5079365079365077,0,0,1.5079365079365077,51.79365194411505,167.4317440759568)" fill="#f6f6f6"><path d="M11.36 40.04 l-4.6 -10.32 c-0.44 0.08 -0.84 0.16 -1.2 0.2 l0.2 10.52 l-4.96 -0.36 l0.44 -25.36 l4.32 -0.56 c4.28 -0.56 8.04 2.28 8.28 6.72 c0.16 2.96 -0.88 5.4 -3.04 7.04 l4.64 9.44 z M5.4 22.4 l0.04 1.12 c0.68 0.12 4.04 0.48 4.2 -2.04 c0.2 -3.68 -2.56 -2.76 -3.92 -2.56 z M29.440000000000005 41.48 l-1.24 -6 l-4.96 0.48 l-1 5.72 l-4.2 -1.12 l4.92 -26.24 l4.8 -0.4 l6.76 26.96 z M24.000000000000004 31.8 l3.32 -0.64 l-1.72 -8.36 z M42.760000000000005 38.4 l-5.64 -0.24 l1.36 -23.84 l3.4 -0.12 l6.08 12.68 l1.72 -13.24 l3.6 1.12 l-1.8 21.36 l-3.6 0.48 l-6 -13 z M59.28000000000001 42.6 c-2.12 0.04 -3.64 -0.28 -3.64 -0.28 l-0.16 -26.56 s0.68 -0.2 3.92 0 c3.24 0.24 9.56 2.52 10.04 12.68 c0.44 10.16 -5.64 14.08 -10.16 14.16 z M60.080000000000005 37.56 c0 0 5.44 -2.2 5.28 -8.28 c-0.16 -6.12 -3.68 -8.08 -5.8 -8.36 z M78.44000000000001 41.52 c-10.68 0.44 -9.16 -26.16 1.16 -26.16 c10.4 0 9.8 25.72 -1.16 26.16 z M79.48 35.92 c2.56 0.08 3.4 -6.28 3.52 -9.2 s-0.8 -7 -3.24 -6.92 s-3.76 6.32 -3.68 8.72 c0.12 3.08 0.8 7.32 3.4 7.4 z M104.04 40.56 l-2.84 -17.88 l-0.88 11.76 l-3.72 -0.12 l-3.76 -10.08 l0.36 16.08 l-4.76 -0.36 l1.24 -22.16 l4.32 -1.24 l3.28 8.04 l1.8 -8.16 l5.52 -0.56 l3.64 23.52 z M126.80000000000001 14.48 l-1.2 3.4 s-7.4 13.12 -9.88 17.48 l8.32 -1.12 l-0.64 5.44 l-13.16 0.48 l-0.12 -2.04 l-0.08 0.04 l0 -2.04 l10.84 -17.68 l-8.88 1.04 l0.36 -4.52 z"></path></g>
			</g>
		</svg>
	